<svg xmlns="http://www.w3.org/2000/svg" width="200" height="200" viewBox="0 0 31 54" fill="none">
<path d="M1.172 1.54399C0.422117 2.29411 0.000854492 3.31134 0.000854492 4.37199C0.000854492 5.43265 0.422117 6.44988 1.172 7.19999L20.972 27L1.172 46.8C0.443369 47.5544 0.0401894 48.5648 0.0493031 49.6136C0.0584167 50.6624 0.479094 51.6656 1.22073 52.4073C1.96236 53.1489 2.96561 53.5696 4.01439 53.5787C5.06318 53.5878 6.07359 53.1846 6.828 52.456L29.456 29.828C30.2059 29.0779 30.6271 28.0607 30.6271 27C30.6271 25.9393 30.2059 24.9221 29.456 24.172L6.828 1.54399C6.07789 0.79411 5.06066 0.372849 4 0.372849C2.93934 0.372849 1.92211 0.79411 1.172 1.54399Z" fill="white"/>
</svg>