<svg xmlns="http://www.w3.org/2000/svg" width="24" height="20" viewBox="0 0 24 20" fill="none">
<path fill-rule="evenodd" clip-rule="evenodd" d="M0.800049 1.99999C0.800049 1.57565 0.96862 1.16868 1.26868 0.868623C1.56874 0.568565 1.9757 0.399994 2.40005 0.399994H21.6C22.0244 0.399994 22.4314 0.568565 22.7314 0.868623C23.0315 1.16868 23.2001 1.57565 23.2001 1.99999C23.2001 2.42434 23.0315 2.83131 22.7314 3.13136C22.4314 3.43142 22.0244 3.59999 21.6 3.59999H2.40005C1.9757 3.59999 1.56874 3.43142 1.26868 3.13136C0.96862 2.83131 0.800049 2.42434 0.800049 1.99999ZM0.800049 9.99999C0.800049 9.57565 0.96862 9.16868 1.26868 8.86862C1.56874 8.56857 1.9757 8.39999 2.40005 8.39999H21.6C22.0244 8.39999 22.4314 8.56857 22.7314 8.86862C23.0315 9.16868 23.2001 9.57565 23.2001 9.99999C23.2001 10.4243 23.0315 10.8313 22.7314 11.1314C22.4314 11.4314 22.0244 11.6 21.6 11.6H2.40005C1.9757 11.6 1.56874 11.4314 1.26868 11.1314C0.96862 10.8313 0.800049 10.4243 0.800049 9.99999ZM0.800049 18C0.800049 17.5756 0.96862 17.1687 1.26868 16.8686C1.56874 16.5686 1.9757 16.4 2.40005 16.4H21.6C22.0244 16.4 22.4314 16.5686 22.7314 16.8686C23.0315 17.1687 23.2001 17.5756 23.2001 18C23.2001 18.4243 23.0315 18.8313 22.7314 19.1314C22.4314 19.4314 22.0244 19.6 21.6 19.6H2.40005C1.9757 19.6 1.56874 19.4314 1.26868 19.1314C0.96862 18.8313 0.800049 18.4243 0.800049 18Z" fill="#7E7E7E"/>
</svg>