<svg xmlns="http://www.w3.org/2000/svg" width="23" height="24" viewBox="0 0 23 24" fill="none">
<path d="M16.6667 15.1667H15.6133L15.24 14.8067C16.0733 13.8386 16.6823 12.6984 17.0234 11.4675C17.3645 10.2366 17.4294 8.94553 17.2133 7.68666C16.5867 3.98 13.4933 1.02 9.76 0.566664C8.44748 0.400618 7.11438 0.537026 5.8627 0.965449C4.61101 1.39387 3.47392 2.10296 2.53844 3.03844C1.60296 3.97392 0.893872 5.11101 0.465449 6.3627C0.0370258 7.61438 -0.0993821 8.94748 0.0666636 10.26C0.519997 13.9933 3.48 17.0867 7.18666 17.7133C8.44553 17.9294 9.7366 17.8645 10.9675 17.5234C12.1984 17.1823 13.3386 16.5733 14.3067 15.74L14.6667 16.1133V17.1667L20.3333 22.8333C20.88 23.38 21.7733 23.38 22.32 22.8333C22.8667 22.2867 22.8667 21.3933 22.32 20.8467L16.6667 15.1667ZM8.66666 15.1667C5.34666 15.1667 2.66666 12.4867 2.66666 9.16666C2.66666 5.84666 5.34666 3.16666 8.66666 3.16666C11.9867 3.16666 14.6667 5.84666 14.6667 9.16666C14.6667 12.4867 11.9867 15.1667 8.66666 15.1667Z" fill="#7E7E7E"/>
</svg>