<svg xmlns="http://www.w3.org/2000/svg" width="20" height="20" viewBox="0 0 20 20" fill="none">
<path d="M8.23199 8.23093C9.13912 7.32386 10.3602 6.80016 11.6426 6.76815C12.925 6.73613 14.1707 7.19826 15.122 8.05893L15.303 8.23093L18.131 11.0599C19.052 11.9826 19.5763 13.2285 19.592 14.5321C19.6077 15.8357 19.1136 17.0939 18.215 18.0385C17.3165 18.9831 16.0845 19.5393 14.7818 19.5887C13.479 19.6381 12.2085 19.1768 11.241 18.3029L11.061 18.1309L8.93898 16.0089C8.75964 15.829 8.65551 15.5875 8.64776 15.3335C8.64 15.0796 8.7292 14.8322 8.89723 14.6417C9.06527 14.4511 9.29954 14.3316 9.55246 14.3075C9.80538 14.2834 10.058 14.3565 10.259 14.5119L10.353 14.5949L12.475 16.7169C13.0251 17.2702 13.769 17.5874 14.5491 17.6013C15.3292 17.6152 16.084 17.3246 16.6534 16.7913C17.2228 16.2579 17.562 15.5237 17.5991 14.7444C17.6362 13.9651 17.3682 13.202 16.852 12.6169L16.717 12.4739L13.889 9.64593C13.6104 9.3673 13.2797 9.14628 12.9157 8.99548C12.5516 8.84469 12.1615 8.76707 11.7675 8.76707C11.3735 8.76707 10.9833 8.84469 10.6193 8.99548C10.2553 9.14628 9.92457 9.3673 9.64598 9.64593C9.45834 9.83344 9.2039 9.93873 8.93863 9.93863C8.67336 9.93854 8.41899 9.83307 8.23148 9.64543C8.04398 9.45779 7.93869 9.20335 7.93878 8.93808C7.93888 8.67281 8.04434 8.41844 8.23199 8.23093ZM1.86799 1.86693C2.77512 0.959865 3.99618 0.436161 5.27861 0.404147C6.56105 0.372132 7.80673 0.834257 8.75799 1.69493L8.93898 1.86693L11.06 3.98993C11.2393 4.16989 11.3435 4.41137 11.3512 4.66532C11.359 4.91927 11.2698 5.16665 11.1017 5.35721C10.9337 5.54778 10.6994 5.66724 10.4465 5.69133C10.1936 5.71542 9.94098 5.64234 9.73998 5.48693L9.64598 5.40393L7.52498 3.28293C6.97395 2.73549 6.23207 2.42311 5.45542 2.41151C4.67877 2.3999 3.92789 2.68998 3.36075 3.22072C2.79361 3.75146 2.45443 4.48147 2.41456 5.25719C2.37469 6.03291 2.63725 6.79385 3.14698 7.37993L3.28199 7.52393L6.11098 10.3529C6.67357 10.9153 7.43649 11.2313 8.23199 11.2313C9.02748 11.2313 9.7904 10.9153 10.353 10.3529C10.4458 10.26 10.5561 10.1863 10.6774 10.136C10.7987 10.0857 10.9288 10.0598 11.0601 10.0597C11.1915 10.0597 11.3216 10.0855 11.4429 10.1357C11.5643 10.186 11.6746 10.2596 11.7675 10.3524C11.8604 10.4453 11.9341 10.5555 11.9844 10.6768C12.0347 10.7982 12.0606 10.9282 12.0607 11.0596C12.0607 11.1909 12.0349 11.321 11.9847 11.4424C11.9345 11.5637 11.8608 11.674 11.768 11.7669C10.8609 12.674 9.63979 13.1977 8.35735 13.2297C7.07492 13.2617 5.82925 12.7996 4.87799 11.9389L4.69598 11.7669L1.86799 8.93793C0.93063 8.00029 0.404053 6.72875 0.404053 5.40293C0.404053 4.07711 0.93063 2.80457 1.86799 1.86693Z" fill="#7E7E7E"/>
</svg>