<svg xmlns="http://www.w3.org/2000/svg" width="132" height="30" viewBox="0 0 132 30" fill="none">
<path d="M0 27.6486H3.50279V2.32628H0V0.758706H22.3178C24.4395 0.758706 26.3543 1.08026 28.0624 1.72337C29.7704 2.35308 31.2249 3.27754 32.4258 4.49677C33.6268 5.71599 34.5475 7.20988 35.188 8.97842C35.8419 10.7336 36.1688 12.7366 36.1688 14.9875C36.1688 17.2517 35.8419 19.2681 35.188 21.0367C34.5475 22.8052 33.6268 24.2991 32.4258 25.5183C31.2249 26.7242 29.7704 27.6486 28.0624 28.2917C26.3543 28.9215 24.4395 29.2363 22.3178 29.2363H0V27.6486ZM17.3138 27.6486C17.941 27.6486 18.5081 27.5883 19.0151 27.4678C19.5356 27.3338 19.9893 27.0926 20.3762 26.7443C20.7632 26.3959 21.0968 25.927 21.377 25.3375C21.6572 24.7346 21.8841 23.9642 22.0576 23.0263C22.2444 22.0884 22.3778 20.963 22.4579 19.65C22.5513 18.3236 22.598 16.7694 22.598 14.9875C22.598 13.2055 22.5513 11.658 22.4579 10.345C22.3778 9.03202 22.2444 7.90658 22.0576 6.96871C21.8841 6.03085 21.6572 5.26046 21.377 4.65755C21.0968 4.05463 20.7632 3.5857 20.3762 3.25075C19.9893 2.9024 19.5356 2.66123 19.0151 2.52725C18.5081 2.39327 17.941 2.32628 17.3138 2.32628V27.6486Z" fill="#554AF0"/>
<path d="M37.1736 24.5939C37.1736 23.8436 37.3137 23.1402 37.5939 22.4837C37.8742 21.8138 38.2611 21.2377 38.7549 20.7553C39.2486 20.2596 39.8224 19.8711 40.4762 19.5897C41.1301 19.3083 41.8307 19.1677 42.5779 19.1677C43.3118 19.1677 44.0057 19.3083 44.6596 19.5897C45.3134 19.8711 45.8872 20.2596 46.3809 20.7553C46.8747 21.2377 47.2616 21.8138 47.5419 22.4837C47.8221 23.1402 47.9622 23.8436 47.9622 24.5939C47.9622 25.3442 47.8221 26.0476 47.5419 26.7041C47.2616 27.3472 46.8747 27.9166 46.3809 28.4123C45.8872 28.9081 45.3134 29.2966 44.6596 29.578C44.0057 29.8593 43.3118 30 42.5779 30C41.8307 30 41.1301 29.8593 40.4762 29.578C39.8224 29.2966 39.2486 28.9081 38.7549 28.4123C38.2611 27.9166 37.8742 27.3472 37.5939 26.7041C37.3137 26.0476 37.1736 25.3442 37.1736 24.5939Z" fill="#554AF0"/>
<path d="M53.3776 21.3114H55.9548V2.57283H53.8219L50.193 9.91953H49.171V1.41283H72.9736V9.91953H71.9367L68.3227 2.57283H66.1749V21.3114H68.767V22.4863H53.3776V21.3114Z" fill="#554AF0"/>
<path d="M77.7264 18.5898C77.7264 17.8264 77.8696 17.172 78.1559 16.6267C78.4423 16.0715 78.8471 15.6055 79.3705 15.2288C79.8938 14.8421 80.5209 14.5348 81.2516 14.3067C81.9823 14.0688 82.792 13.8854 83.6807 13.7565C84.5793 13.6276 85.5421 13.5433 86.569 13.5036C87.596 13.4541 88.6624 13.4293 89.7684 13.4293V12.5965C89.7684 11.3274 89.6795 10.3112 89.5017 9.54774C89.3339 8.78431 89.0722 8.19935 88.7167 7.79286C88.3711 7.38636 87.9416 7.12362 87.4281 7.00465C86.9146 6.87576 86.3172 6.81131 85.6359 6.81131C85.2705 6.81131 84.8805 6.84106 84.4657 6.90054C84.0609 6.96003 83.7005 7.02943 83.3845 7.10875C83.8387 7.15832 84.2584 7.27234 84.6435 7.4508C85.0286 7.62926 85.3594 7.85234 85.6359 8.12004C85.9124 8.38773 86.1247 8.68517 86.2728 9.01235C86.4308 9.33953 86.5098 9.67167 86.5098 10.0088C86.5098 10.4252 86.4061 10.8168 86.1987 11.1836C85.9914 11.5505 85.705 11.8727 85.3396 12.1503C84.9743 12.418 84.5497 12.6312 84.0658 12.7898C83.582 12.9484 83.0636 13.0278 82.5106 13.0278C81.9576 13.0278 81.4392 12.9484 80.9553 12.7898C80.4814 12.6312 80.0617 12.418 79.6963 12.1503C79.3409 11.8727 79.0594 11.5505 78.8521 11.1836C78.6447 10.8168 78.541 10.4252 78.541 10.0088C78.541 9.45355 78.6891 8.95286 78.9854 8.5067C79.2915 8.06055 79.7013 7.66892 80.2148 7.33183C80.7381 6.98482 81.3503 6.68738 82.0514 6.43952C82.7624 6.19165 83.5227 5.9884 84.3324 5.82977C85.1421 5.67114 85.9815 5.55712 86.8504 5.48772C87.7293 5.4084 88.6032 5.36874 89.4721 5.36874C91.0126 5.36874 92.3506 5.4778 93.4861 5.69592C94.6316 5.90413 95.5795 6.28088 96.33 6.82618C97.0903 7.36157 97.6581 8.10021 98.0333 9.04209C98.4086 9.97406 98.5962 11.1589 98.5962 12.5965V18.8278C98.5962 19.5714 98.6702 20.1464 98.8184 20.5529C98.9764 20.9495 99.2627 21.1478 99.6775 21.1478C99.8848 21.1478 100.053 21.0833 100.181 20.9545C100.319 20.8156 100.423 20.6372 100.492 20.4191C100.571 20.2009 100.625 19.9481 100.655 19.6606C100.685 19.3731 100.699 19.0806 100.699 18.7832V17.3108H102.018V18.7832C102.018 19.5763 101.914 20.2456 101.707 20.7909C101.509 21.3362 101.159 21.7774 100.655 22.1145C100.161 22.4516 99.4948 22.6895 98.6554 22.8283C97.826 22.977 96.7793 23.0514 95.5153 23.0514C94.8735 23.0514 94.2711 23.0167 93.7083 22.9473C93.1553 22.8779 92.6468 22.7589 92.1827 22.5904C91.7285 22.4218 91.3335 22.1987 90.9977 21.9211C90.662 21.6435 90.3954 21.2965 90.1979 20.8801C89.9017 21.3362 89.5067 21.708 89.013 21.9955C88.5192 22.2731 87.986 22.4912 87.4133 22.6498C86.8406 22.8085 86.2629 22.9126 85.6803 22.9622C85.0977 23.0216 84.5645 23.0514 84.0806 23.0514C82.9253 23.0514 81.9428 22.9275 81.1331 22.6796C80.3234 22.4416 79.6667 22.1194 79.1631 21.7129C78.6595 21.3064 78.2942 20.8355 78.067 20.3001C77.8399 19.7548 77.7264 19.1847 77.7264 18.5898ZM86.2728 18.4262C86.2728 19.1599 86.4061 19.7548 86.6727 20.2109C86.9393 20.657 87.3787 20.8801 87.9909 20.8801C88.5044 20.8801 88.929 20.6967 89.2648 20.3298C89.6005 19.9531 89.7684 19.4524 89.7684 18.8278V14.7975C89.0574 14.7975 88.4748 14.8619 88.0206 14.9908C87.5663 15.1197 87.2059 15.3279 86.9393 15.6155C86.6826 15.8931 86.5048 16.2649 86.4061 16.7308C86.3172 17.1968 86.2728 17.762 86.2728 18.4262Z" fill="#554AF0"/>
<path d="M106.074 21.4155H108.666V1.07077H106.074V0H117.479V13.7713C117.756 13.5136 118.087 13.2013 118.472 12.8344C118.857 12.4577 119.262 12.066 119.686 11.6595C120.111 11.2431 120.531 10.8267 120.945 10.4103C121.37 9.99389 121.755 9.61218 122.101 9.26517C122.446 8.91816 122.733 8.62072 122.96 8.37286C123.187 8.12499 123.325 7.9614 123.375 7.88209C123.404 7.84243 123.419 7.81268 123.419 7.79286C123.429 7.76311 123.434 7.73337 123.434 7.70362C123.434 7.57473 123.365 7.46567 123.226 7.37644C123.098 7.28721 122.91 7.21781 122.664 7.16824C122.427 7.10875 122.14 7.06909 121.805 7.04926C121.479 7.01952 121.118 7.00465 120.723 7.00465V5.93387H129.729V7.00465C129.314 7.00465 128.904 7.01456 128.499 7.03439C128.104 7.05422 127.729 7.09883 127.374 7.16824C127.018 7.22772 126.687 7.32191 126.381 7.4508C126.085 7.56978 125.823 7.73337 125.596 7.94157C125.34 8.16961 125.019 8.46705 124.634 8.83389C124.258 9.20072 123.844 9.60722 123.389 10.0534C122.935 10.4995 122.456 10.9705 121.953 11.4662C121.459 11.952 120.975 12.4378 120.501 12.9236C120.787 12.9038 121.069 12.8889 121.345 12.879C121.622 12.8691 121.888 12.8642 122.145 12.8642C123.3 12.8642 124.288 12.9435 125.108 13.1021C125.937 13.2607 126.613 13.5334 127.137 13.9201C127.67 14.2968 128.055 14.8025 128.292 15.437C128.539 16.0616 128.662 16.8399 128.662 17.7719C128.662 17.8611 128.662 17.9404 128.662 18.0098C128.662 18.0693 128.662 18.1387 128.662 18.218C128.662 18.2874 128.657 18.3767 128.648 18.4857C128.648 18.5948 128.643 18.7336 128.633 18.9021C128.623 19.0707 128.613 19.2095 128.603 19.3185C128.603 19.4276 128.603 19.5218 128.603 19.6011C128.603 19.6804 128.603 19.7548 128.603 19.8242C128.603 19.8936 128.603 19.9729 128.603 20.0621C128.603 20.3298 128.648 20.5579 128.736 20.7462C128.835 20.9247 128.993 21.0139 129.21 21.0139C129.359 21.0139 129.487 20.9644 129.596 20.8652C129.704 20.7661 129.793 20.6025 129.862 20.3745C129.941 20.1365 129.995 19.8242 130.025 19.4375C130.065 19.0509 130.084 18.57 130.084 17.995H131.328V18.4857C131.328 19.4673 131.22 20.2604 131.003 20.8652C130.785 21.4601 130.44 21.9211 129.966 22.2483C129.502 22.5755 128.894 22.7886 128.144 22.8878C127.403 22.9969 126.51 23.0514 125.463 23.0514C124.298 23.0514 123.35 22.9423 122.619 22.7242C121.898 22.516 121.335 22.2037 120.931 21.7873C120.526 21.3709 120.249 20.8553 120.101 20.2406C119.963 19.6259 119.894 18.917 119.894 18.1139C119.894 17.1225 119.839 16.3194 119.731 15.7047C119.622 15.0801 119.39 14.6488 119.035 14.4108C118.719 14.738 118.422 15.0404 118.146 15.318C117.879 15.5857 117.657 15.8187 117.479 16.017V21.4155H119.331V22.4863H106.074V21.4155Z" fill="#554AF0"/>
<path d="M50.7103 29.0077H51.2147V25.3613H50.7103V25.1355H53.9241C54.2296 25.1355 54.5053 25.1818 54.7513 25.2744C54.9972 25.3651 55.2067 25.4982 55.3796 25.6738C55.5526 25.8494 55.6852 26.0645 55.7774 26.3192C55.8715 26.5719 55.9186 26.8603 55.9186 27.1845C55.9186 27.5105 55.8715 27.8009 55.7774 28.0556C55.6852 28.3102 55.5526 28.5254 55.3796 28.7009C55.2067 28.8746 54.9972 29.0077 54.7513 29.1003C54.5053 29.191 54.2296 29.2363 53.9241 29.2363H50.7103V29.0077ZM53.2035 29.0077C53.2938 29.0077 53.3755 28.999 53.4485 28.9816C53.5234 28.9623 53.5888 28.9276 53.6445 28.8775C53.7002 28.8273 53.7483 28.7598 53.7886 28.6749C53.829 28.5881 53.8616 28.4771 53.8866 28.3421C53.9135 28.207 53.9327 28.045 53.9442 27.8559C53.9577 27.6649 53.9644 27.4411 53.9644 27.1845C53.9644 26.9279 53.9577 26.705 53.9442 26.516C53.9327 26.3269 53.9135 26.1648 53.8866 26.0298C53.8616 25.8947 53.829 25.7838 53.7886 25.697C53.7483 25.6101 53.7002 25.5426 53.6445 25.4944C53.5888 25.4442 53.5234 25.4095 53.4485 25.3902C53.3755 25.3709 53.2938 25.3613 53.2035 25.3613V29.0077Z" fill="#554AF0"/>
<path d="M56.5441 29.0077H57.0485V25.3613H56.5441V25.1355H59.5388V25.3613H59.0373V29.0077H59.5388V29.2363H56.5441V29.0077Z" fill="#554AF0"/>
<path d="M60.1671 27.2829C60.1671 26.9645 60.2161 26.6684 60.3141 26.3944C60.414 26.1185 60.563 25.8793 60.7609 25.6767C60.9607 25.4741 61.2096 25.315 61.5074 25.1992C61.8072 25.0834 62.1578 25.0256 62.5594 25.0256C62.8457 25.0256 63.1224 25.069 63.3895 25.1558C63.6585 25.2426 63.9093 25.3912 64.1418 25.6015L64.4963 25.069H64.6952V26.9472H64.4704C64.4012 26.6404 64.3071 26.3857 64.1879 26.1832C64.0707 25.9806 63.941 25.8195 63.7988 25.6999C63.6585 25.5783 63.5115 25.4934 63.3578 25.4452C63.206 25.395 63.0619 25.3699 62.9255 25.3699C62.8601 25.3699 62.7948 25.3757 62.7295 25.3873C62.6661 25.397 62.6046 25.4211 62.545 25.4597C62.4855 25.4963 62.4297 25.5503 62.3778 25.6217C62.326 25.6931 62.2808 25.7905 62.2424 25.914C62.2059 26.0356 62.1761 26.1861 62.153 26.3655C62.1319 26.5449 62.1213 26.761 62.1213 27.0137C62.1213 27.3957 62.129 27.7189 62.1444 27.9832C62.1617 28.2475 62.1895 28.4617 62.228 28.6257C62.2683 28.7877 62.3202 28.9054 62.3836 28.9787C62.4489 29.0521 62.5296 29.0887 62.6257 29.0887C62.7026 29.0887 62.7631 29.0733 62.8073 29.0424C62.8515 29.0115 62.8842 28.9623 62.9053 28.8948C62.9264 28.8254 62.9389 28.7366 62.9428 28.6286C62.9485 28.5186 62.9514 28.3845 62.9514 28.2263V27.4044H62.4153V27.1758H65.1593V27.4044H64.6952V29.3463H64.5165C64.4243 29.2517 64.3301 29.1861 64.234 29.1495C64.138 29.1128 64.0361 29.0945 63.9285 29.0945C63.8248 29.0945 63.72 29.1061 63.6143 29.1292C63.5087 29.1524 63.3953 29.1794 63.2742 29.2103C63.1378 29.2431 62.9918 29.2739 62.8361 29.3029C62.6824 29.3337 62.5124 29.3492 62.326 29.3492C61.9974 29.3492 61.7005 29.2952 61.4353 29.1871C61.1702 29.0791 60.9434 28.9315 60.7551 28.7443C60.5668 28.5572 60.4217 28.3382 60.3199 28.0874C60.218 27.8366 60.1671 27.5684 60.1671 27.2829Z" fill="#554AF0"/>
<path d="M65.6521 29.0077H66.1565V25.3613H65.6521V25.1355H68.6468V25.3613H68.1453V29.0077H68.6468V29.2363H65.6521V29.0077Z" fill="#554AF0"/>
<path d="M69.9439 29.0077H70.4454V25.3613H70.0303L69.3242 26.7909H69.1253V25.1355H73.7571V26.7909H73.5554L72.8521 25.3613H72.4342V29.0077H72.9386V29.2363H69.9439V29.0077Z" fill="#554AF0"/>
<path d="M73.907 29.0077C74.0627 29.0077 74.1818 28.9971 74.2644 28.9759C74.349 28.9546 74.4028 28.916 74.4258 28.8601L75.9102 25.1355H77.1756L78.9136 29.0077H79.4151V29.2363H76.1466V29.0077H76.7029L76.3051 28.0093H75.0369L74.6997 28.8514C74.6977 28.8572 74.6968 28.8649 74.6968 28.8746C74.6968 28.9016 74.7093 28.9238 74.7342 28.9411C74.7611 28.9566 74.7977 28.9701 74.8438 28.9816C74.8918 28.9913 74.9475 28.998 75.0109 29.0019C75.0763 29.0058 75.1474 29.0077 75.2242 29.0077V29.2363H73.907V29.0077ZM76.2157 27.7806L75.6595 26.4147L75.1262 27.7806H76.2157Z" fill="#554AF0"/>
<path d="M79.6889 29.0077H80.1933V25.3613H79.6889V25.1355H82.6836V25.3613H82.1821V29.0077H83.0987L83.8221 27.6909H84.0181V29.2363H79.6889V29.0077Z" fill="#554AF0"/>
<path d="M86.8802 27.662H87.0734C87.1214 27.7565 87.181 27.8588 87.2521 27.9687C87.3232 28.0768 87.4067 28.1848 87.5028 28.2929C87.5989 28.4009 87.7084 28.5051 87.8314 28.6054C87.9544 28.7038 88.0918 28.7906 88.2436 28.8659C88.3954 28.9411 88.5625 29.0019 88.7451 29.0482C88.9276 29.0926 89.1275 29.1148 89.3446 29.1148C89.408 29.1148 89.4791 29.1119 89.5579 29.1061C89.6367 29.0984 89.7107 29.0839 89.7798 29.0627C89.849 29.0395 89.9067 29.0077 89.9528 28.9672C90.0008 28.9247 90.0248 28.8688 90.0248 28.7993C90.0248 28.726 89.9941 28.6614 89.9326 28.6054C89.873 28.5475 89.7818 28.4926 89.6588 28.4405C89.5358 28.3864 89.3801 28.3324 89.1918 28.2784C89.0055 28.2244 88.7854 28.1636 88.5318 28.0961C87.9669 27.9495 87.548 27.7449 87.2751 27.4826C87.0042 27.2182 86.8687 26.896 86.8687 26.516C86.8687 26.2787 86.9167 26.0674 87.0128 25.8822C87.1108 25.697 87.2434 25.5417 87.4106 25.4163C87.5797 25.2889 87.7766 25.1925 88.0015 25.1269C88.2282 25.0593 88.4693 25.0256 88.7249 25.0256C88.8556 25.0256 88.992 25.0371 89.1342 25.0603C89.2783 25.0834 89.4186 25.1153 89.555 25.1558C89.6914 25.1963 89.8202 25.2455 89.9412 25.3034C90.0623 25.3593 90.168 25.4211 90.2583 25.4886L90.6935 25.0661H90.8924V26.325H90.7108C90.6263 26.1725 90.5177 26.0307 90.3851 25.8995C90.2525 25.7684 90.1007 25.6545 89.9297 25.5581C89.7587 25.4616 89.5694 25.3854 89.3619 25.3294C89.1544 25.2735 88.9344 25.2455 88.7019 25.2455C88.6577 25.2455 88.601 25.2474 88.5318 25.2513C88.4626 25.2532 88.3944 25.2629 88.3272 25.2802C88.2618 25.2976 88.2051 25.3256 88.1571 25.3642C88.1091 25.4008 88.085 25.4529 88.085 25.5204C88.085 25.6304 88.184 25.7365 88.3819 25.8388C88.5818 25.9391 88.8786 26.0414 89.2725 26.1455C89.4397 26.1899 89.6011 26.2372 89.7568 26.2873C89.9124 26.3356 90.0575 26.3915 90.192 26.4552C90.3284 26.5169 90.4514 26.5883 90.5609 26.6693C90.6724 26.7484 90.7675 26.842 90.8463 26.9501C90.9251 27.0581 90.9856 27.1816 91.0279 27.3205C91.0721 27.4594 91.0942 27.6195 91.0942 27.8009C91.0942 28.0112 91.0557 28.2099 90.9789 28.3971C90.902 28.5842 90.7867 28.7482 90.633 28.889C90.4812 29.0299 90.2919 29.1418 90.0652 29.2247C89.8384 29.3058 89.5761 29.3463 89.2783 29.3463C89.115 29.3463 88.9613 29.3337 88.8171 29.3087C88.673 29.2836 88.5328 29.246 88.3963 29.1958C88.2618 29.1456 88.1283 29.0829 87.9957 29.0077C87.8631 28.9305 87.7267 28.8408 87.5864 28.7385L87.0964 29.2913H86.8802V27.662Z" fill="#554AF0"/>
<path d="M91.7917 27.1845C91.7917 26.9935 91.8109 26.8073 91.8493 26.6259C91.8897 26.4446 91.9512 26.2738 92.0338 26.1137C92.1183 25.9536 92.2259 25.8069 92.3566 25.6738C92.4873 25.5407 92.6439 25.4259 92.8264 25.3294C93.009 25.233 93.2194 25.1587 93.4576 25.1066C93.6959 25.0526 93.964 25.0256 94.2618 25.0256C94.5596 25.0256 94.8277 25.0526 95.066 25.1066C95.3042 25.1587 95.5146 25.233 95.6972 25.3294C95.8817 25.4259 96.0392 25.5407 96.1699 25.6738C96.3005 25.8069 96.4072 25.9536 96.4898 26.1137C96.5724 26.2738 96.633 26.4446 96.6714 26.6259C96.7118 26.8073 96.7319 26.9935 96.7319 27.1845C96.7319 27.3755 96.7118 27.5626 96.6714 27.7459C96.633 27.9273 96.5724 28.098 96.4898 28.2581C96.4072 28.4183 96.3005 28.5649 96.1699 28.698C96.0392 28.8312 95.8817 28.9459 95.6972 29.0424C95.5146 29.1389 95.3042 29.2132 95.066 29.2653C94.8277 29.3193 94.5596 29.3463 94.2618 29.3463C93.964 29.3463 93.6959 29.3193 93.4576 29.2653C93.2194 29.2132 93.009 29.1389 92.8264 29.0424C92.6439 28.9459 92.4873 28.8312 92.3566 28.698C92.2259 28.5649 92.1183 28.4183 92.0338 28.2581C91.9512 28.098 91.8897 27.9273 91.8493 27.7459C91.8109 27.5646 91.7917 27.3774 91.7917 27.1845ZM94.2618 29.1466C94.3617 29.1466 94.4443 29.1167 94.5097 29.0569C94.5769 28.9971 94.6307 28.8929 94.6711 28.7443C94.7114 28.5938 94.7393 28.3932 94.7547 28.1424C94.772 27.8896 94.7806 27.5703 94.7806 27.1845C94.7806 26.8005 94.772 26.4832 94.7547 26.2324C94.7393 25.9796 94.7114 25.779 94.6711 25.6304C94.6307 25.4799 94.5769 25.3748 94.5097 25.315C94.4443 25.2552 94.3617 25.2252 94.2618 25.2252C94.1619 25.2252 94.0783 25.2552 94.011 25.315C93.9457 25.3748 93.8929 25.4799 93.8525 25.6304C93.8141 25.779 93.7862 25.9796 93.7689 26.2324C93.7536 26.4832 93.7459 26.8005 93.7459 27.1845C93.7459 27.5703 93.7536 27.8896 93.7689 28.1424C93.7862 28.3932 93.8141 28.5938 93.8525 28.7443C93.8929 28.8929 93.9457 28.9971 94.011 29.0569C94.0783 29.1167 94.1619 29.1466 94.2618 29.1466Z" fill="#554AF0"/>
<path d="M97.3574 29.0077H97.8618V25.3613H97.3574V25.1355H100.352V25.3613H99.8506V29.0077H100.767L101.491 27.6909H101.687V29.2363H97.3574V29.0077Z" fill="#554AF0"/>
<path d="M102.574 25.3613H102.07V25.1355H105.065V25.3613H104.563V27.5954C104.563 27.7768 104.573 27.9495 104.592 28.1134C104.611 28.2774 104.651 28.4221 104.71 28.5475C104.772 28.671 104.858 28.7694 104.97 28.8427C105.083 28.916 105.233 28.9527 105.419 28.9527C105.49 28.9527 105.563 28.9459 105.638 28.9324C105.713 28.917 105.785 28.889 105.854 28.8485C105.925 28.808 105.992 28.7521 106.053 28.6807C106.117 28.6093 106.171 28.5176 106.218 28.4057C106.266 28.2919 106.303 28.1559 106.33 27.9977C106.357 27.8376 106.37 27.6485 106.37 27.4305V25.532C106.37 25.4761 106.327 25.4336 106.241 25.4047C106.156 25.3757 106.03 25.3613 105.863 25.3613V25.1355H107.117V25.3613C106.952 25.3613 106.827 25.3757 106.742 25.4047C106.658 25.4336 106.615 25.4761 106.615 25.532V27.3494C106.615 27.7006 106.583 28.0025 106.517 28.2553C106.454 28.5061 106.345 28.7125 106.192 28.8746C106.04 29.0366 105.837 29.1562 105.583 29.2334C105.332 29.3087 105.018 29.3463 104.641 29.3463C104.38 29.3463 104.147 29.3231 103.943 29.2768C103.74 29.2305 103.561 29.1659 103.407 29.0829C103.254 28.998 103.124 28.8977 103.018 28.782C102.913 28.6643 102.827 28.536 102.762 28.3971C102.696 28.2562 102.648 28.1067 102.618 27.9485C102.589 27.7903 102.574 27.6273 102.574 27.4594V25.3613Z" fill="#554AF0"/>
<path d="M108.307 29.0077H108.809V25.3613H108.394L107.688 26.7909H107.489V25.1355H112.121V26.7909H111.919L111.215 25.3613H110.798V29.0077H111.302V29.2363H108.307V29.0077Z" fill="#554AF0"/>
<path d="M112.599 29.0077H113.103V25.3613H112.599V25.1355H115.594V25.3613H115.092V29.0077H115.594V29.2363H112.599V29.0077Z" fill="#554AF0"/>
<path d="M116.222 27.1845C116.222 26.9935 116.241 26.8073 116.28 26.6259C116.32 26.4446 116.382 26.2738 116.464 26.1137C116.549 25.9536 116.656 25.8069 116.787 25.6738C116.918 25.5407 117.074 25.4259 117.257 25.3294C117.439 25.233 117.65 25.1587 117.888 25.1066C118.126 25.0526 118.394 25.0256 118.692 25.0256C118.99 25.0256 119.258 25.0526 119.496 25.1066C119.735 25.1587 119.945 25.233 120.128 25.3294C120.312 25.4259 120.47 25.5407 120.6 25.6738C120.731 25.8069 120.838 25.9536 120.92 26.1137C121.003 26.2738 121.063 26.4446 121.102 26.6259C121.142 26.8073 121.162 26.9935 121.162 27.1845C121.162 27.3755 121.142 27.5626 121.102 27.7459C121.063 27.9273 121.003 28.098 120.92 28.2581C120.838 28.4183 120.731 28.5649 120.6 28.698C120.47 28.8312 120.312 28.9459 120.128 29.0424C119.945 29.1389 119.735 29.2132 119.496 29.2653C119.258 29.3193 118.99 29.3463 118.692 29.3463C118.394 29.3463 118.126 29.3193 117.888 29.2653C117.65 29.2132 117.439 29.1389 117.257 29.0424C117.074 28.9459 116.918 28.8312 116.787 28.698C116.656 28.5649 116.549 28.4183 116.464 28.2581C116.382 28.098 116.32 27.9273 116.28 27.7459C116.241 27.5646 116.222 27.3774 116.222 27.1845ZM118.692 29.1466C118.792 29.1466 118.875 29.1167 118.94 29.0569C119.007 28.9971 119.061 28.8929 119.101 28.7443C119.142 28.5938 119.17 28.3932 119.185 28.1424C119.202 27.8896 119.211 27.5703 119.211 27.1845C119.211 26.8005 119.202 26.4832 119.185 26.2324C119.17 25.9796 119.142 25.779 119.101 25.6304C119.061 25.4799 119.007 25.3748 118.94 25.315C118.875 25.2552 118.792 25.2252 118.692 25.2252C118.592 25.2252 118.509 25.2552 118.441 25.315C118.376 25.3748 118.323 25.4799 118.283 25.6304C118.244 25.779 118.217 25.9796 118.199 26.2324C118.184 26.4832 118.176 26.8005 118.176 27.1845C118.176 27.5703 118.184 27.8896 118.199 28.1424C118.217 28.3932 118.244 28.5938 118.283 28.7443C118.323 28.8929 118.376 28.9971 118.441 29.0569C118.509 29.1167 118.592 29.1466 118.692 29.1466Z" fill="#554AF0"/>
<path d="M121.635 29.0077C121.718 29.0077 121.797 29.0058 121.874 29.0019C121.953 28.9961 122.022 28.9874 122.082 28.9759C122.141 28.9643 122.188 28.9479 122.223 28.9267C122.259 28.9054 122.278 28.8775 122.278 28.8427V25.8243L121.926 25.3613H121.583V25.1355H124.102L125.956 27.5867V25.532C125.956 25.4973 125.943 25.4693 125.918 25.4481C125.895 25.4249 125.86 25.4076 125.814 25.396C125.768 25.3825 125.712 25.3738 125.647 25.3699C125.582 25.3642 125.508 25.3613 125.425 25.3613V25.1355H126.731V25.3613C126.566 25.3613 126.436 25.3719 126.342 25.3931C126.248 25.4143 126.201 25.4606 126.201 25.532V29.2363H124.739L122.523 26.1484V28.8283C122.523 28.8668 122.538 28.8977 122.569 28.9209C122.601 28.944 122.645 28.9623 122.699 28.9759C122.754 28.9874 122.82 28.9961 122.895 29.0019C122.969 29.0058 123.049 29.0077 123.134 29.0077V29.2363H121.635V29.0077Z" fill="#554AF0"/>
<path d="M127.411 27.662H127.604C127.652 27.7565 127.712 27.8588 127.783 27.9687C127.854 28.0768 127.938 28.1848 128.034 28.2929C128.13 28.4009 128.239 28.5051 128.362 28.6054C128.485 28.7038 128.623 28.7906 128.774 28.8659C128.926 28.9411 129.093 29.0019 129.276 29.0482C129.458 29.0926 129.658 29.1148 129.875 29.1148C129.939 29.1148 130.01 29.1119 130.089 29.1061C130.168 29.0984 130.242 29.0839 130.311 29.0627C130.38 29.0395 130.438 29.0077 130.484 28.9672C130.532 28.9247 130.556 28.8688 130.556 28.7993C130.556 28.726 130.525 28.6614 130.463 28.6054C130.404 28.5475 130.313 28.4926 130.19 28.4405C130.067 28.3864 129.911 28.3324 129.723 28.2784C129.536 28.2244 129.316 28.1636 129.063 28.0961C128.498 27.9495 128.079 27.7449 127.806 27.4826C127.535 27.2182 127.4 26.896 127.4 26.516C127.4 26.2787 127.448 26.0674 127.544 25.8822C127.642 25.697 127.774 25.5417 127.941 25.4163C128.111 25.2889 128.307 25.1925 128.532 25.1269C128.759 25.0593 129 25.0256 129.256 25.0256C129.386 25.0256 129.523 25.0371 129.665 25.0603C129.809 25.0834 129.949 25.1153 130.086 25.1558C130.222 25.1963 130.351 25.2455 130.472 25.3034C130.593 25.3593 130.699 25.4211 130.789 25.4886L131.224 25.0661H131.423V26.325H131.242C131.157 26.1725 131.049 26.0307 130.916 25.8995C130.783 25.7684 130.632 25.6545 130.461 25.5581C130.29 25.4616 130.1 25.3854 129.893 25.3294C129.685 25.2735 129.465 25.2455 129.233 25.2455C129.189 25.2455 129.132 25.2474 129.063 25.2513C128.993 25.2532 128.925 25.2629 128.858 25.2802C128.793 25.2976 128.736 25.3256 128.688 25.3642C128.64 25.4008 128.616 25.4529 128.616 25.5204C128.616 25.6304 128.715 25.7365 128.913 25.8388C129.113 25.9391 129.409 26.0414 129.803 26.1455C129.971 26.1899 130.132 26.2372 130.288 26.2873C130.443 26.3356 130.588 26.3915 130.723 26.4552C130.859 26.5169 130.982 26.5883 131.092 26.6693C131.203 26.7484 131.298 26.842 131.377 26.9501C131.456 27.0581 131.516 27.1816 131.559 27.3205C131.603 27.4594 131.625 27.6195 131.625 27.8009C131.625 28.0112 131.587 28.2099 131.51 28.3971C131.433 28.5842 131.318 28.7482 131.164 28.889C131.012 29.0299 130.823 29.1418 130.596 29.2247C130.369 29.3058 130.107 29.3463 129.809 29.3463C129.646 29.3463 129.492 29.3337 129.348 29.3087C129.204 29.2836 129.064 29.246 128.927 29.1958C128.793 29.1456 128.659 29.0829 128.527 29.0077C128.394 28.9305 128.258 28.8408 128.117 28.7385L127.627 29.2913H127.411V27.662Z" fill="#554AF0"/>
</svg>